<?xml version="1.0" encoding="utf-8"?>
<!-- Generator: Adobe Illustrator 27.8.1, SVG Export Plug-In . SVG Version: 6.00 Build 0)  -->
<svg version="1.1" id="Layer_1" xmlns="http://www.w3.org/2000/svg" xmlns:xlink="http://www.w3.org/1999/xlink" x="0px" y="0px"
	 viewBox="0 0 690.67 154.63" style="enable-background:new 0 0 690.67 154.63;" xml:space="preserve">
<style type="text/css">
	.st0{fill:#000000;}
</style>
<g>
	<g>
		<path class="st0" d="M100.07,69.81c0,6.38-5.22,11.59-11.59,11.59H50.04c-6.38,0-11.59,5.22-11.59,11.59v50.04
			c0,6.38-5.02,11.59-11.4,11.59H11.59C5.22,154.62,0,149.41,0,143.03V12.24C0,5.87,5.22,0.65,11.59,0.65h76.89
			c6.57,0,11.59,5.22,11.59,11.59V69.81z M84.81,27.5c0-6.38-5.22-11.4-11.59-11.4H27.05c-6.38,0-11.59,5.02-11.59,11.4v27.05
			c0,6.38,5.22,11.59,11.59,11.59h46.17c6.38,0,11.59-5.22,11.59-11.59V27.5z"/>
		<path class="st0" d="M206.72,154.62c0,0-7.73-3.48-7.73-7.73V93c0-6.38-5.02-11.59-11.4-11.59h-23.18
			c-6.38,0-11.59,5.22-11.59,11.59v50.04c0,6.38-5.02,11.59-11.4,11.59h-15.46c-6.38,0-11.59-5.22-11.59-11.59V12.24
			c0-6.38,5.22-11.59,11.59-11.59h57.76c6.38,0,11.4,5.22,11.4,11.59v41.34c0,3.09,1.35,5.99,3.48,8.11l12.36,12.56
			c2.12,2.12,3.48,5.02,3.48,8.11v64.53C214.44,151.15,210.97,154.62,206.72,154.62z M179.86,27.5c0-6.38-5.22-11.4-11.59-11.4
			h-26.85c-6.38,0-11.59,5.02-11.59,11.4v27.05c0,6.38,5.22,11.59,11.59,11.59h26.85c6.38,0,11.59-5.22,11.59-11.59V27.5z"/>
		<path class="st0" d="M284.77,154.62h-45.4c-6.38,0-11.59-5.22-11.59-11.59v-19.32c0-6.38,5.22-11.59,11.59-11.59h3.28
			c6.38,0,11.59-5.22,11.59-11.59V7.8c0-4.25,3.48-7.73,7.73-7.73c0,0,7.73,3.48,7.73,7.73v92.73c0,6.38,5.22,11.59,11.59,11.59
			h3.48c6.38,0,11.59,5.22,11.59,11.59v19.32C296.36,149.41,291.14,154.62,284.77,154.62z"/>
		<path class="st0" d="M391.6,154.62h-73.22c-4.25,0-7.73-3.48-7.73-7.73s3.48-7.73,7.73-7.73h30.72c6.38,0,11.59-5.02,11.59-11.4
			V92.8c0-6.38-5.22-11.4-11.59-11.4l-26.85-0.19c-6.38,0-11.59-5.02-11.59-11.4V12.05c0-6.38,5.22-11.4,11.59-11.4h58.54
			c4.25,0,7.73,3.28,7.73,7.53c0,4.25-3.48,7.73-7.73,7.73h-43.27c-6.38,0-11.59,5.22-11.59,11.59v26.85
			c0,6.38,5.22,11.59,11.59,11.59h54.09c6.38,0,11.4,5.22,11.4,11.59v65.49C403,149.41,397.98,154.62,391.6,154.62z"/>
		<path class="st0" d="M556.59,154.62h-27.05c-6.38,0-11.59-5.22-11.59-11.59v-19.32c0-6.57,5.22-11.78,11.59-11.59h0.77
			c3.29,0,5.8-2.71,5.8-5.8c0-0.97-0.19-1.74-0.58-2.51l-33.42-82.88c-1.16-3.09-3.86-5.41-7.34-5.41h-7.73
			c-4.25,0-7.73,3.48-7.73,7.73v77.28c0,6.38,5.22,11.59,11.59,11.59h7.73c6.38,0,11.59,5.02,11.59,11.59v19.32
			c0,6.38-5.22,11.59-11.59,11.59h-34.77c-6.38,0-11.59-5.22-11.59-11.59v-20.86c0-4.25,2.32-8.11,5.8-10.05
			c3.48-2.12,5.8-5.8,5.8-10.05V23.25c0-4.25-3.48-7.73-7.73-7.73h-15.65c-4.25,0-7.73,3.48-7.73,7.73v78.82
			c0,4.25,2.32,8.11,5.8,10.05c0,0,5.8,5.8,5.8,10.05v20.86c0,6.38-5.22,11.59-11.59,11.59h-3.86c-6.38,0-11.59-5.22-11.59-11.59
			V11.66c0-6.38,5.22-11.59,11.59-11.59h73.61c5.02,0,9.27,3.28,11.01,7.73l37.09,91.77l2.51,6.38c1.35,3.09,3.86,5.8,7.34,6.76
			c4.44,1.55,7.73,5.8,7.73,11.01v19.32C568.18,149.41,562.96,154.62,556.59,154.62z"/>
		<path class="st0" d="M679.08,154.62h-36.71c-6.38,0-11.59-5.22-11.59-11.59v-19.32c0-6.38,5.22-11.59,11.59-11.59h22.99
			c3.09,0,5.8-2.51,5.8-5.8c0-0.77-0.19-1.74-0.58-2.51c-12.36-18.35-12.56-18.74-12.56-18.74c-1.55-2.32-3.86-3.86-6.76-3.86
			h-45.59c-4.25,0-7.73,3.48-7.73,7.73v11.59c0,6.38,5.22,11.59,11.59,11.59c0,0,11.59,5.22,11.59,11.59v19.32
			c0,6.38-5.22,11.59-11.59,11.59h-15.46c-6.38,0-11.59-5.22-11.59-11.59V11.66c0-6.38,5.22-11.59,11.59-11.59h20.48
			c4.06,0,7.54,1.93,9.47,5.02c0,0,0.58,0.77,65.11,98.91c0.97,2.71,1.55,5.6,1.55,8.69v30.33
			C690.67,149.41,685.45,154.62,679.08,154.62z M640.05,57.26L614.94,19.2c-1.35-2.12-3.67-3.48-6.38-3.48h-2.9
			c-4.25,0-7.73,3.48-7.73,7.73v30.72c0,6.38,5.02,11.59,11.59,11.59h25.31c3.09,0,5.8-2.7,5.8-5.8
			C640.63,59,640.44,58.03,640.05,57.26z"/>
	</g>
</g>
</svg>
